<svg xmlns="http://www.w3.org/2000/svg" viewBox="0 0 811.64 530.48"><g id="Object"><path d="M250.51,295.76a18.45,18.45,0,0,0-18.45,18.47V696.3a18.44,18.44,0,0,0,18.45,18.45h621A18.47,18.47,0,0,0,890,696.3V314.23a18.48,18.48,0,0,0-18.47-18.47Zm596,377.68H274.32V335.87H846.46Z" transform="translate(-155.18 -295.76)" style="fill:#999"/><path d="M883.35,722.72H238.65a17,17,0,0,0-11.7,4.8L162,788.6c-13.44,12.62-5.69,37.64,11.68,37.64H948.33c17.35,0,25.11-25,11.68-37.64l-65-61.08A17,17,0,0,0,883.35,722.72Z" transform="translate(-155.18 -295.76)" style="fill:#999"/><path d="M846.46,673.44V335.87H274.32V673.44Z" transform="translate(-155.18 -295.76)" style="fill:#f2f2f2"/><rect x="535.82" y="90.78" width="125" height="165.46" style="fill:#14b8a6"/><rect x="140.26" y="60.95" width="123.85" height="15.39" style="fill:#0f766e"/><rect x="144.26" y="315.24" width="363.56" height="32.78" style="fill:#f59e0b"/><rect x="271.86" y="60.95" width="123.84" height="15.39" style="fill:#0f766e"/><rect x="403.47" y="60.95" width="123.86" height="15.39" style="fill:#0f766e"/><rect x="535.82" y="269.39" width="126.93" height="11.68" style="fill:#fbbf24"/><rect x="535.82" y="289.43" width="126.93" height="11.66" style="fill:#fbbf24"/><rect x="535.82" y="309.47" width="126.93" height="11.67" style="fill:#fbbf24"/><rect x="535.82" y="329.5" width="66.1" height="11.68" style="fill:#fbbf24"/><rect x="535.07" y="60.95" width="125.75" height="15.39" style="fill:#0f766e"/><rect x="140.02" y="102.43" width="84.81" height="55.81" style="fill:#14b8a6"/><rect x="233.25" y="102.36" width="84.81" height="55.81" style="fill:#14b8a6"/><rect x="328.25" y="102.36" width="84.81" height="55.81" style="fill:#14b8a6"/><rect x="423.25" y="102.36" width="84.81" height="55.81" style="fill:#14b8a6"/><rect x="140.02" y="170.43" width="84.81" height="55.81" style="fill:#14b8a6"/><rect x="233.25" y="170.36" width="84.81" height="55.81" style="fill:#14b8a6"/><rect x="328.25" y="170.36" width="84.81" height="55.81" style="fill:#14b8a6"/><rect x="423.25" y="170.36" width="84.81" height="55.81" style="fill:#14b8a6"/><rect x="140.02" y="237.43" width="84.81" height="55.81" style="fill:#14b8a6"/><rect x="233.25" y="237.36" width="84.81" height="55.81" style="fill:#14b8a6"/><rect x="328.25" y="237.36" width="84.81" height="55.81" style="fill:#14b8a6"/><rect x="423.25" y="237.36" width="84.81" height="55.81" style="fill:#14b8a6"/></g></svg>