<svg width="93" height="36" fill="none" xmlns="http://www.w3.org/2000/svg"><path d="M26.6 10.7c0 3.5 5.2 2.6 5.2 4.4 0 .7-.5 1.2-1.6 1.2-1 0-1.7-.6-1.7-1.5h-2c0 2 1.4 3.3 3.7 3.3s3.6-1.5 3.6-2.9c0-3.7-5.2-2.7-5.2-4.5 0-.5.6-1.1 1.6-1.1s1.5.6 1.5 1.4h1.8c0-1.8-1.3-3.2-3.3-3.2-2.2 0-3.6 1.4-3.6 3zm13 5s-.4.6-1.3.6c-1 0-1.5-.5-1.7-1.3h5.1v-.7c0-2.2-1.5-3.7-3.4-3.7-2 0-3.7 1.6-3.7 3.7s1.7 3.8 3.7 3.8c1.7 0 2.9-1.2 3.3-2.3h-2zm-1.3-3.4c1 0 1.6.7 1.7 1.5h-3.5c.2-.8.8-1.5 1.8-1.5zm9.5 3s-.4 1-1.6 1c-1 0-1.8-.8-1.8-2s.8-2 1.8-2c1.2 0 1.6 1 1.6 1h1.9a3.6 3.6 0 00-3.5-2.7c-2 0-3.7 1.6-3.7 3.7s1.7 3.8 3.7 3.8c1.8 0 3.1-1.4 3.5-2.8h-1.9zm6 2.8c1.1 0 2-.8 2-.8l.3.7h1.4v-7.4h-1.9v4.1c0 1-.6 1.6-1.5 1.6s-1.5-.6-1.5-1.6v-4h-1.9V15c0 1.9 1.2 3 3 3zm8.7-7.5c-1.1 0-1.8.8-1.8.8l-.3-.8H59V18H61v-4c0-.9.6-1.5 1.5-1.5h.6v-1.9h-.5zm6.1 5.2s-.4.5-1.4.5c-1 0-1.5-.5-1.6-1.3h5l.2-.7c0-2.2-1.6-3.7-3.6-3.7s-3.6 1.6-3.6 3.7 1.6 3.8 3.6 3.8c1.7 0 3-1.2 3.3-2.3h-1.9zm-1.4-3.5c1 0 1.6.7 1.8 1.5h-3.5c.1-.8.8-1.5 1.7-1.5z" fill="#3D4047"/><path d="M26.4 24c0 2.4 3.7 1.6 3.7 3.1 0 .6-.4 1-1.4 1-.8 0-1.3-.4-1.3-1.2h-1c0 1.3.9 2.2 2.3 2.2 1.5 0 2.5-1 2.5-2 0-2.5-3.7-1.7-3.7-3.2 0-.5.5-1 1.3-1 .7 0 1.2.5 1.2 1.3h1c0-1.2-1-2.2-2.2-2.2-1.4 0-2.4 1-2.4 2zm5.5 0c0 2.4 3.7 1.6 3.7 3.1 0 .6-.4 1-1.4 1-.8 0-1.3-.4-1.3-1.2h-1c0 1.3.9 2.2 2.3 2.2 1.5 0 2.5-1 2.5-2 0-2.5-3.7-1.7-3.7-3.2 0-.5.5-1 1.2-1 .8 0 1.3.5 1.3 1.3h1c0-1.2-1-2.2-2.2-2.2-1.4 0-2.4 1-2.4 2zm7 4v-6h-1v7h4.3v-1h-3.3zm7.7 0v-2h3.2v-1h-3.2v-2H50v-1h-4.6v7h4.7v-1h-3.6zm7.2-4c-1 0-1.5.5-1.5.5l-.2-.4h-.7V29h1v-2.9c0-.6.6-1.2 1.2-1.2s1.2.6 1.2 1.2V29h1v-2.9c0-1.2-1-2.1-2-2.1zm6.5 3.2c-.2.5-.6 1-1.2 1-.7 0-1.4-.7-1.4-1.7s.7-1.6 1.4-1.6c.6 0 1 .4 1.2 1h1c-.2-1-1-1.9-2.2-1.9-1.3 0-2.4 1-2.4 2.5s1 2.6 2.4 2.6c1.2 0 2-.9 2.2-2h-1zm4.2-3.2c-.8 0-1.3.5-1.3.5l-.2-.4h-.7V29h1v-2.8c0-.7.5-1.2 1.2-1.2h.3v-1h-.3zm2.6 4.8l-.2.5c0 .4-.4.6-1 .6v.9h.4c.8 0 1.2-.4 1.6-1.5l2.1-5.2h-1l-1.4 3.5-1.4-3.6h-1l1.9 4.8zm6-4.8c-1 0-1.4.5-1.4.5l-.2-.4h-.7v6.7h1v-2.3s.4.6 1.3.6c1.4 0 2.4-1 2.4-2.6 0-1.5-1-2.5-2.4-2.5zm0 4.1c-.8 0-1.5-.6-1.5-1.6s.7-1.6 1.5-1.6c.7 0 1.4.7 1.4 1.6 0 1-.7 1.6-1.4 1.6zM78 25h1v-1h-1v-1.3h-.8v.7c0 .4-.3.7-.7.7H76v.9h.9v2.3c0 1.1.6 1.8 1.5 1.8.4 0 .6-.2.6-.2v-.8h-.4a.8.8 0 01-.7-.8V25zm3.2-1h-1v5h1v-5zm-.5-.7a.6.6 0 00.6-.6.6.6 0 00-.6-.6.6.6 0 00-.6.6c0 .3.3.6.6.6zm5.3 3.2c0 1-.7 1.6-1.4 1.6s-1.3-.6-1.3-1.6.6-1.6 1.3-1.6 1.4.7 1.4 1.6zm1 0c0-1.5-1-2.5-2.4-2.5-1.3 0-2.3 1-2.3 2.5s1 2.6 2.3 2.6c1.4 0 2.4-1 2.4-2.6zm3.4-2.5c-1 0-1.4.5-1.4.5l-.2-.4H88V29h1v-2.9c0-.6.6-1.2 1.2-1.2s1.2.6 1.2 1.2V29h1v-2.9c0-1.2-.9-2.1-2-2.1z" fill="#98A1B3"/><path fill-rule="evenodd" clip-rule="evenodd" d="M9 9.4c-2 0-3.6 1.7-3.6 3.7V18H3v-4.9C3 9.7 5.7 7 9 7s6 2.7 6 6.1V18h-2.4v-4.9c0-2-1.6-3.7-3.6-3.7z" fill="#2C955C"/><rect y="15" width="18" height="15" rx="2" fill="#25B869"/><path d="M6 21.5l2.1 2.1a.5.5 0 00.8 0l3.6-3.6" stroke="#fff" stroke-width="2" stroke-linecap="round"/></svg>